<?xml version="1.0" standalone="no"?><!DOCTYPE svg PUBLIC "-//W3C//DTD SVG 1.1//EN" "http://www.w3.org/Graphics/SVG/1.1/DTD/svg11.dtd"><svg t="1648042577449" class="icon" viewBox="0 0 1024 1024" version="1.1" xmlns="http://www.w3.org/2000/svg" p-id="2163" xmlns:xlink="http://www.w3.org/1999/xlink" width="200" height="200"><defs><style type="text/css"></style></defs><path d="M512 0c282.304 0 512 229.696 512 512s-229.696 512-512 512S0 794.304 0 512 229.696 0 512 0z m112 742.272V640a32 32 0 0 0-64 0v192h192a32 32 0 0 0 0-64h-47.904A320 320 0 0 0 832 512c0-163.424-123.072-300.096-284.224-318.016a32 32 0 0 0-7.104 63.616A256.032 256.032 0 0 1 624 742.272zM384 290.24V384a32 32 0 0 0 64 0V192H256a32 32 0 1 0 0 64h63.936a320.064 320.064 0 0 0 151.488 573.44 32 32 0 0 0 8-63.488A256.064 256.064 0 0 1 384 290.24z" p-id="2164" fill="#8a8a8a"></path></svg>